<?xml version="1.0" standalone="no"?>
<!DOCTYPE svg PUBLIC "-//W3C//DTD SVG 20010904//EN"
 "http://www.w3.org/TR/2001/REC-SVG-20010904/DTD/svg10.dtd">
<svg version="1.0" xmlns="http://www.w3.org/2000/svg"
 width="1536.000000pt" height="1536.000000pt" viewBox="0 0 1536.000000 1536.000000"
 preserveAspectRatio="xMidYMid meet">
<metadata>
Created by potrace 1.11, written by Peter Selinger 2001-2013
</metadata>
<g transform="translate(0.000000,1536.000000) scale(0.100000,-0.100000)"
fill="#000000" stroke="none">
<path d="M6360 15342 c-8 -2 -36 -15 -62 -28 -27 -13 -48 -20 -48 -16 0 4 -4
2 -8 -4 -4 -6 -33 -25 -64 -43 -116 -65 -302 -229 -388 -341 -14 -18 -30 -37
-35 -44 -53 -60 -174 -257 -234 -381 -69 -142 -160 -384 -174 -460 -2 -11 -7
-27 -10 -35 -9 -24 -40 -164 -52 -240 -4 -25 -9 -54 -12 -65 -2 -11 -6 -33 -8
-50 -2 -16 -6 -43 -9 -60 -33 -209 -46 -634 -32 -995 5 -102 9 -206 10 -232 0
-27 3 -48 6 -48 3 0 6 -35 7 -78 0 -42 5 -133 9 -202 12 -206 8 -391 -11 -474
-3 -12 -7 -32 -9 -46 -31 -188 -134 -350 -261 -409 -54 -25 -189 -39 -200 -21
-4 6 -10 8 -15 5 -5 -3 -17 -2 -27 3 -91 45 -113 58 -113 64 0 5 -4 8 -10 8
-5 0 -26 17 -47 39 -53 53 -84 91 -76 91 3 0 -1 8 -10 18 -24 27 -69 135 -84
202 -2 14 -6 30 -7 35 -29 117 -34 343 -12 505 l6 45 -23 -35 c-42 -62 -197
-356 -197 -374 0 -3 -8 -25 -19 -49 -35 -80 -43 -102 -86 -233 -40 -118 -76
-248 -89 -314 -2 -14 -11 -56 -19 -95 -9 -38 -18 -86 -21 -105 -3 -19 -8 -46
-10 -60 -3 -14 -8 -54 -11 -90 -4 -36 -9 -81 -11 -100 -5 -43 -12 -204 -14
-320 -2 -138 18 -404 36 -495 3 -11 11 -58 20 -105 8 -47 24 -121 35 -165 12
-44 22 -87 24 -95 8 -36 87 -266 95 -274 5 -5 6 -15 3 -22 -3 -8 0 -14 6 -14
6 0 11 -6 11 -14 0 -13 19 -57 105 -241 11 -22 21 -42 24 -45 4 -3 14 -21 23
-40 10 -19 24 -44 30 -55 7 -10 42 -64 77 -120 35 -55 67 -101 72 -103 5 -2 9
-8 9 -14 0 -24 265 -326 273 -311 2 4 5 28 6 53 1 25 3 59 6 75 2 17 7 62 10
100 7 68 12 100 15 100 1 0 3 16 5 35 3 31 23 159 29 185 1 6 8 37 15 70 7 33
26 107 42 165 45 159 58 194 128 333 38 77 71 127 118 177 36 39 71 70 79 70
8 0 14 3 14 8 0 4 14 16 30 27 16 11 30 24 30 28 0 5 -4 6 -9 2 -5 -3 -12 -1
-16 5 -3 5 -3 10 2 10 4 0 22 12 38 28 17 15 68 58 115 96 120 98 304 285 359
366 13 19 29 40 36 45 6 6 24 33 40 60 16 28 32 52 36 55 13 10 77 147 99 215
25 76 33 209 17 295 -35 184 -49 355 -50 580 0 175 10 300 33 404 5 22 7 44 4
48 -3 4 -2 8 3 8 4 0 9 11 9 25 1 14 5 33 9 43 4 9 9 27 11 38 7 58 95 246
155 336 44 65 161 184 190 193 10 4 19 10 19 15 0 11 154 85 210 101 55 15 77
15 134 -1 83 -23 140 -97 142 -185 1 -59 -34 -131 -139 -278 -115 -164 -153
-247 -171 -372 -2 -16 -5 -30 -6 -30 -5 0 -10 -103 -14 -270 -3 -165 2 -269
18 -365 2 -14 7 -47 11 -75 4 -27 11 -60 16 -72 5 -13 6 -23 3 -23 -4 0 -2 -6
3 -12 10 -14 29 -81 37 -133 3 -16 7 -40 10 -52 8 -38 18 -212 20 -369 2 -114
6 -160 20 -194 9 -25 18 -49 20 -55 4 -18 45 -93 72 -132 67 -99 210 -232 398
-368 15 -11 36 -27 46 -35 10 -8 33 -26 51 -40 57 -45 85 -72 67 -67 -28 9
-27 -3 6 -37 74 -79 142 -201 185 -337 23 -70 23 -69 47 -174 17 -74 18 -84
28 -155 4 -25 8 -52 11 -60 6 -21 21 -171 40 -385 7 -80 16 -273 19 -418 2
-65 6 -120 9 -124 4 -3 2 -14 -4 -24 -11 -22 -12 -21 19 -24 12 -1 22 2 22 6
0 5 8 9 18 9 10 0 23 5 30 12 7 7 12 8 12 2 0 -5 4 -4 8 2 8 12 145 80 151 75
2 -1 7 1 10 6 9 12 106 70 130 78 12 3 21 11 21 16 0 5 4 9 10 9 17 0 247 165
330 236 171 148 325 311 438 464 23 30 45 60 49 65 9 11 76 112 109 165 12 19
32 55 45 80 13 25 26 47 29 50 15 14 164 338 175 380 3 8 21 62 41 120 20 58
37 112 39 120 2 8 10 42 19 75 10 33 19 74 22 90 3 17 7 37 10 45 8 22 36 188
50 295 11 82 16 207 17 370 0 183 -5 275 -27 480 -5 40 -15 114 -21 145 -2 14
-11 63 -19 110 -23 124 -26 143 -32 163 -3 10 -7 30 -9 45 -2 15 -13 66 -25
112 -12 47 -23 96 -25 110 -2 14 -4 25 -5 25 -2 0 -51 178 -55 200 -2 11 -24
90 -50 175 -25 85 -47 162 -48 170 -1 8 -5 20 -8 25 -3 6 -12 33 -18 60 -7 28
-15 57 -18 65 -4 8 -7 20 -8 25 -2 6 -15 53 -30 105 -15 52 -29 102 -30 110
-2 8 -4 15 -5 15 -1 0 -3 7 -5 15 -2 8 -13 53 -25 100 -22 87 -45 185 -55 236
-14 74 -18 100 -19 117 0 9 -3 17 -6 17 -3 0 -5 12 -6 28 -1 15 -4 56 -8 92
-14 132 -9 328 10 420 8 37 56 183 63 195 4 6 12 22 18 36 11 26 11 27 -25 22
-50 -6 -172 -51 -172 -64 0 -4 -13 -12 -28 -18 -35 -15 -160 -143 -197 -202
-16 -24 -31 -46 -35 -49 -12 -9 -98 -194 -125 -270 -22 -63 -117 -403 -129
-465 -23 -113 -116 -373 -156 -435 -6 -8 -15 -26 -21 -40 -5 -13 -13 -27 -17
-30 -4 -3 -21 -25 -37 -49 -59 -87 -165 -184 -250 -228 -75 -39 -92 -44 -184
-48 -57 -2 -85 2 -125 18 -28 12 -52 25 -54 29 -2 4 -9 8 -15 8 -14 1 -84 66
-113 106 -28 38 -69 117 -66 127 1 4 -2 7 -8 7 -6 0 -9 3 -8 8 1 4 -4 24 -11
45 -7 21 -14 44 -15 50 -2 7 -6 23 -9 37 -16 59 -19 92 -22 215 -2 72 0 150 4
175 5 25 11 61 14 80 9 68 95 369 127 445 9 21 62 181 67 203 2 6 4 18 6 25 1
6 5 17 9 22 5 9 44 159 54 210 2 11 6 31 9 45 5 25 12 77 20 155 5 47 6 276 1
320 -5 47 -20 159 -21 165 -8 26 -16 59 -19 80 -32 174 -139 417 -258 581 -74
104 -73 105 -74 -34 0 -116 -8 -230 -20 -307 -10 -65 -46 -213 -60 -247 -8
-18 -15 -36 -16 -40 0 -5 -12 -25 -24 -45 -13 -21 -24 -40 -24 -44 0 -12 -90
-122 -125 -153 -48 -42 -111 -81 -130 -81 -8 0 -15 -4 -15 -9 0 -11 -90 -26
-140 -23 -139 7 -268 130 -328 313 -52 156 -44 333 24 539 20 61 122 273 136
281 15 10 6 27 -12 21z"/>
<path d="M6590 12437 c-121 -51 -164 -77 -234 -145 -129 -125 -228 -346 -260
-577 -3 -22 -9 -60 -12 -85 -8 -54 -9 -465 -1 -535 17 -155 25 -210 33 -249
30 -134 25 -259 -15 -386 -11 -36 -20 -69 -20 -74 0 -5 -3 -12 -8 -15 -4 -3
-27 -44 -51 -91 -45 -89 -151 -243 -224 -326 -93 -105 -185 -200 -246 -252
-13 -11 -19 -22 -15 -25 28 -16 418 -130 493 -143 14 -3 32 -7 41 -10 73 -21
185 -22 239 0 22 9 41 16 43 15 1 0 9 2 17 5 34 13 137 38 170 42 19 3 46 7
60 9 24 5 183 18 228 19 30 0 28 9 -10 39 -46 35 -111 100 -155 155 -21 26
-41 49 -45 50 -5 2 -8 8 -8 12 0 5 -12 26 -26 47 -30 45 -74 138 -74 158 0 7
-4 17 -10 20 -5 3 -10 16 -10 29 0 12 -3 26 -7 30 -13 12 -15 40 -18 216 -2
152 -5 207 -20 340 -2 14 -4 27 -5 30 -1 3 -2 8 -1 12 0 3 -10 42 -24 87 -13
44 -26 96 -29 117 -4 20 -8 46 -11 58 -6 29 -14 86 -22 159 -8 77 -8 428 0
482 4 22 9 65 12 95 7 71 39 187 67 248 22 48 94 168 113 188 5 6 17 22 25 34
8 13 24 35 35 49 53 70 81 130 68 149 -13 22 -53 31 -83 19z"/>
<path d="M5525 9533 c-200 -29 -322 -117 -408 -295 -38 -80 -54 -114 -62 -138
-1 -3 -4 -12 -8 -20 -6 -18 -40 -120 -43 -135 -2 -5 -5 -19 -7 -30 -3 -11 -12
-47 -21 -80 -8 -33 -17 -73 -20 -90 -3 -16 -8 -40 -10 -51 -7 -35 -36 -226
-41 -264 -2 -19 -6 -66 -10 -105 -3 -38 -8 -92 -11 -120 -3 -27 -7 -81 -9
-120 -3 -38 -7 -97 -9 -130 -43 -535 -53 -1307 -21 -1600 3 -22 7 -76 10 -120
2 -44 7 -98 10 -120 2 -22 7 -62 10 -90 2 -27 7 -63 9 -80 5 -30 13 -91 22
-155 2 -19 7 -51 10 -70 3 -19 7 -48 10 -65 2 -16 11 -66 20 -110 8 -44 17
-93 20 -110 3 -16 10 -42 16 -57 5 -15 8 -34 4 -43 -3 -8 0 -15 6 -15 6 0 9
-2 6 -5 -3 -3 3 -38 13 -78 11 -40 22 -84 24 -99 3 -15 10 -39 15 -54 6 -15 8
-29 5 -32 -2 -3 -1 -10 4 -16 6 -7 12 -23 14 -36 6 -32 56 -199 67 -225 5 -11
14 -38 21 -60 18 -61 115 -319 127 -340 4 -5 7 -14 8 -20 5 -24 50 -121 59
-127 6 -4 7 -8 3 -8 -12 0 209 -432 225 -438 4 -2 7 -7 7 -12 0 -12 72 -134
85 -142 5 -4 7 -8 2 -8 -8 0 84 -143 96 -148 4 -2 5 -8 1 -13 -3 -5 -1 -9 5
-9 5 0 12 -8 16 -19 3 -10 17 -31 30 -47 14 -16 25 -35 25 -41 0 -7 4 -13 8
-13 4 0 16 -15 27 -32 35 -61 243 -340 257 -346 5 -2 6 -8 2 -13 -3 -5 -1 -9
4 -9 5 0 28 -24 50 -52 22 -29 52 -66 66 -83 14 -16 43 -50 63 -74 96 -113
206 -231 216 -231 6 0 8 -3 4 -6 -5 -6 272 -287 394 -399 125 -116 346 -304
439 -375 25 -19 47 -37 50 -41 21 -25 391 -292 565 -407 77 -51 145 -96 150
-100 6 -4 73 -47 150 -94 77 -48 147 -93 155 -100 8 -7 17 -12 20 -10 3 1 13
-5 23 -13 9 -8 24 -15 32 -15 8 0 15 -3 15 -8 0 -4 15 -13 33 -21 17 -8 39
-20 48 -28 9 -7 26 -16 39 -18 12 -2 29 -10 36 -16 17 -14 113 -61 133 -65 7
-1 18 -7 24 -13 6 -6 19 -11 29 -11 10 0 18 -3 18 -8 0 -7 17 -16 95 -48 50
-20 95 -39 143 -61 20 -10 39 -18 42 -18 7 -1 125 -62 188 -97 28 -16 52 -26
52 -22 0 4 6 1 14 -5 13 -11 174 -93 186 -95 3 -1 21 -9 40 -18 19 -9 85 -37
145 -62 61 -26 119 -51 130 -55 36 -16 160 -63 170 -65 6 -1 15 -4 20 -8 10
-6 228 -77 255 -83 8 -2 43 -11 77 -20 35 -9 72 -18 84 -20 11 -2 28 -6 37 -9
9 -3 33 -8 52 -10 19 -3 60 -9 90 -14 30 -4 88 -8 127 -7 40 0 73 -2 73 -5 0
-3 60 -4 132 -4 175 2 307 14 348 31 8 3 17 7 20 7 41 10 70 59 65 107 -9 76
-52 157 -115 217 -35 33 -196 152 -206 152 -3 0 -20 10 -37 23 -18 12 -41 27
-52 34 -11 7 -69 43 -130 80 -60 37 -114 70 -119 72 -6 2 -39 24 -73 48 -34
23 -64 43 -67 43 -8 0 -101 64 -104 73 -2 4 -10 7 -18 7 -8 0 -14 5 -14 10 0
6 -5 10 -11 10 -10 0 -49 28 -91 65 -10 8 -21 15 -25 15 -5 0 -22 14 -40 30
-18 17 -36 30 -40 30 -21 0 -258 216 -446 407 -89 91 -209 210 -266 266 -385
379 -516 512 -611 623 -106 123 -190 224 -190 229 0 3 -8 13 -17 23 -37 38
-63 72 -63 82 0 6 -3 10 -7 10 -5 1 -25 24 -46 53 -21 29 -56 77 -79 107 -54
73 -257 380 -299 453 -19 33 -43 73 -53 90 -10 18 -31 55 -46 82 -15 28 -37
68 -50 90 -64 111 -181 358 -255 535 -26 63 -53 129 -61 147 -8 17 -14 33 -14
36 0 3 -5 18 -12 34 -6 15 -12 30 -13 33 0 3 -9 30 -20 60 -10 30 -20 60 -21
65 -2 6 -12 34 -23 63 -11 29 -19 54 -19 55 1 3 -40 141 -62 212 -10 33 -21
71 -23 85 -2 14 -6 32 -9 40 -5 14 -29 123 -30 135 0 2 -6 28 -14 57 -8 29
-16 73 -20 98 -3 25 -9 61 -14 80 -5 19 -12 58 -15 85 -4 28 -9 61 -11 75 -2
14 -6 43 -9 65 -3 22 -7 56 -10 75 -30 218 -39 384 -37 720 8 1063 3 1685 -13
1860 -7 73 -18 236 -19 282 -1 21 -3 38 -6 38 -3 0 -5 12 -6 28 -1 33 -14 131
-19 152 -3 8 -5 32 -7 53 -1 20 -6 37 -11 37 -4 0 -5 4 -2 10 3 5 1 28 -5 50
-6 23 -13 53 -15 68 -4 35 -36 134 -46 146 -4 5 -5 15 -2 22 3 8 0 14 -6 14
-6 0 -11 7 -11 16 0 19 -44 104 -80 154 -84 117 -226 205 -380 235 -69 13
-280 8 -280 -7 0 -5 -10 -8 -22 -8 -13 -1 -41 -8 -63 -16 -22 -8 -44 -16 -50
-17 -5 -1 -12 -4 -15 -7 -3 -3 -27 -16 -55 -29 -53 -26 -126 -32 -231 -18 -84
11 -268 54 -329 77 -117 43 -217 62 -280 53z"/>
</g>
</svg>
